<?xml version="1.0" encoding="utf-8"?>
<!-- Generator: Adobe Illustrator 23.0.1, SVG Export Plug-In . SVG Version: 6.00 Build 0)  -->
<svg version="1.1" id="Layer_1" xmlns="http://www.w3.org/2000/svg" xmlns:xlink="http://www.w3.org/1999/xlink" x="0px" y="0px"
	 viewBox="0 0 631.5 180.1" style="enable-background:new 0 0 631.5 180.1;" xml:space="preserve">
<style type="text/css">
	.st0{fill:#020203;}
</style>
<g>
	<g>
		<path class="st0" d="M34.4,135.5c12.1-32.4,21.1-65.9,27-100c1.1-6.3-8.6-9-9.6-2.7c-5.9,34.1-14.9,67.6-27,100
			C22.5,138.9,32.2,141.5,34.4,135.5L34.4,135.5z"/>
	</g>
</g>
<g>
	<g>
		<path class="st0" d="M80.4,81.2c-8.5-15-14.7-31-18.5-47.8c-1.4-6.3-11.1-3.6-9.6,2.7c4,17.6,10.6,34.5,19.5,50.2
			C75,91.8,83.6,86.8,80.4,81.2L80.4,81.2z"/>
	</g>
</g>
<g>
	<g>
		<path class="st0" d="M98.3,32.4C92,49.9,83,66.3,71.8,81.2c-3.9,5.1,4.8,10.1,8.6,5c11.7-15.6,20.9-32.8,27.5-51.2
			C110.1,29,100.4,26.4,98.3,32.4L98.3,32.4z"/>
	</g>
</g>
<g>
	<g>
		<path class="st0" d="M125.1,133.7c-4.4-34-10.1-67.8-17.2-101.3c-1.3-6.3-11-3.6-9.6,2.7c6.9,32.7,12.5,65.6,16.8,98.7
			C115.9,140,125.9,140.1,125.1,133.7L125.1,133.7z"/>
	</g>
</g>
<g>
	<g>
		<g>
			<path class="st0" d="M134.4,115.5c15.7-3.3,31.3-6.7,47-10c6.3-1.3,3.6-11-2.7-9.6c-15.7,3.3-31.3,6.7-47,10
				C125.5,107.2,128.1,116.9,134.4,115.5L134.4,115.5z"/>
		</g>
	</g>
	<g>
		<g>
			<path class="st0" d="M174.8,120.2c-4.4,7.3-14.6,10-22.6,7.8c-8.6-2.4-14.3-10.6-14.1-19.4c0.3-8.6,6.4-16.1,14.7-18.2
				c8.3-2.1,20,3,22.4,11.7c1.7,6.2,11.3,3.6,9.6-2.7c-3.6-13.4-19.7-21.5-32.8-19.1c-13.1,2.4-22.9,13.7-24,26.9
				c-1.1,13.3,7.6,25.8,20.1,30.1c12.5,4.3,28.2-0.5,35.1-12C186.8,119.7,178.1,114.7,174.8,120.2L174.8,120.2z"/>
		</g>
	</g>
</g>
<g>
	<g>
		<path class="st0" d="M201.1,133.7c0-26.3,0-52.5,0-78.8c0-1.4,0.1-2.8,0-4.1c-0.7-6.8-7.4-14.4-11.5-19.6c-4-5-11,2.1-7.1,7.1
			c2.5,3.1,4.7,6.5,6.6,9.9c0.4,0.7,0.8,1.5,1.2,2.2c0,0,1.3,2.4,0.7,0.9c-0.1-0.3-0.1-0.8,0-0.3c0.2,1.2,0,2.7,0,3.9
			c0,6.2,0,12.3,0,18.5c0,16.2,0,32.4,0,48.6c0,3.9,0,7.8,0,11.7C191.1,140.1,201.1,140.1,201.1,133.7L201.1,133.7z"/>
	</g>
</g>
<g>
	<g>
		<path class="st0" d="M213.9,82.5c-0.8,10-1.1,20.1-0.8,30.2c0.1,6.4,10.1,6.4,10,0c-0.2-10.1,0-20.1,0.8-30.2
			C224.4,76.1,214.4,76.1,213.9,82.5L213.9,82.5z"/>
	</g>
</g>
<g>
	<g>
		<path class="st0" d="M254.8,82.7c-1.2,10-1.2,20,0,30c0.8,6.3,10.8,6.4,10,0c-1.2-10-1.2-20,0-30
			C265.5,76.3,255.5,76.4,254.8,82.7L254.8,82.7z"/>
	</g>
</g>
<g>
	<g>
		<path class="st0" d="M282,33.7c0,26.3,0,52.7,0,79c0,6.4,10,6.4,10,0c0-26.3,0-52.7,0-79C292,27.3,282,27.3,282,33.7L282,33.7z"/>
	</g>
</g>
<g>
	<g>
		<path class="st0" d="M317.7,116.6c-0.3,6.3-6.8,12.1-13,12.1c-8.5,0-12.5-9.2-12.7-16.5c-0.2-6.4-10.2-6.4-10,0
			c0.4,12.8,8.5,26.5,22.7,26.5c11.8,0,22.5-10.4,23-22.1C328,110.2,318,110.2,317.7,116.6L317.7,116.6z"/>
	</g>
</g>
<g>
	<g>
		<path class="st0" d="M604.9,116.6c-0.3,6.3-6.8,12.1-13,12.1c-8.5,0-12.5-9.2-12.7-16.5c-0.2-6.4-10.2-6.4-10,0
			c0.4,12.8,8.5,26.5,22.7,26.5c11.8,0,22.5-10.4,23-22.1C615.2,110.2,605.2,110.2,604.9,116.6L604.9,116.6z"/>
	</g>
</g>
<g>
	<g>
		<path class="st0" d="M280,87.7c10.7,0,21.3,0,32,0c6.4,0,6.4-10,0-10c-10.7,0-21.3,0-32,0C273.5,77.7,273.5,87.7,280,87.7
			L280,87.7z"/>
	</g>
</g>
<g>
	<g>
		<path class="st0" d="M569,33.7c0,26.3,0,52.7,0,79c0,6.4,10,6.4,10,0c0-26.3,0-52.7,0-79C579,27.3,569,27.3,569,33.7L569,33.7z"/>
	</g>
</g>
<g>
	<g>
		<path class="st0" d="M567,87.7c10.7,0,21.3,0,32,0c6.4,0,6.4-10,0-10c-10.7,0-21.3,0-32,0C560.5,77.7,560.5,87.7,567,87.7
			L567,87.7z"/>
	</g>
</g>
<g>
	<g>
		<path class="st0" d="M341.5,152.1c0.5,13.3,10.9,21.6,24,21.3c4.6-0.1,8.9-1.2,12.3-4.5c4.5-4.3,6.5-10.8,7.9-16.7
			c3-13.2,3.3-27,3.4-40.5c0-6.4-10-6.4-10,0c0,11.2-0.2,22.5-2.2,33.6c-0.9,5.3-2.1,10.9-5.1,15.3c-0.5,0.7,0,0.1-0.9,1.1
			c-1.1,1.1,0.1,0-0.9,0.7c-0.9,0.7-1,0.5-0.6,0.4c-0.5,0.1-0.9,0.3-1.4,0.4c-1.7,0.3,1.1,0.1-1.2,0.2c-2.5,0.1-4.9,0.1-7.3-0.6
			c-5.1-1.5-7.8-5.3-7.9-10.5C351.3,145.7,341.3,145.7,341.5,152.1L341.5,152.1z"/>
	</g>
</g>
<g>
	<g>
		<path class="st0" d="M448.3,135.5c6.5-29.5,12.9-58.9,19.4-88.4c0.9-4.2,1.8-8.4,2.8-12.6c1.4-6.3-8.3-9-9.6-2.7
			c-6.5,29.5-12.9,58.9-19.4,88.4c-0.9,4.2-1.8,8.4-2.8,12.6C437.3,139.1,446.9,141.8,448.3,135.5L448.3,135.5z"/>
	</g>
</g>
<g>
	<g>
		<path class="st0" d="M502.1,131.3c-9.2-29-18.4-57.9-27.6-86.9c-1.3-4.2-2.7-8.4-4-12.6c-1.9-6.1-11.6-3.5-9.6,2.7
			c9.2,29,18.4,57.9,27.6,86.9c1.3,4.2,2.7,8.4,4,12.6C494.4,140.1,504,137.5,502.1,131.3L502.1,131.3z"/>
	</g>
</g>
<g>
	<g>
		<path class="st0" d="M453.2,96c10,0,20,0,30-0.1c6.4,0,6.4-10,0-10c-10,0-20,0-30,0.1C446.8,86,446.8,96,453.2,96L453.2,96z"/>
	</g>
</g>
<g>
	<g>
		<path class="st0" d="M506,83.7c0,16.7,0,33.3,0,50c0,6.4,10,6.4,10,0c0-16.7,0-33.3,0-50C516,77.3,506,77.3,506,83.7L506,83.7z"/>
	</g>
</g>
<g>
	<g>
		<path class="st0" d="M553.8,78.2c-9.1,0-18.3,0.6-27.4,2.1c-7.3,1.2-17.6,3.2-20.3,11.2c-2.1,6.1,7.6,8.7,9.6,2.7
			c-0.1,0.4,0.8-0.6,1.3-0.8c1.3-0.7,2.7-1.2,4.1-1.6c3.6-1.1,7.4-1.7,11.2-2.2c7.1-0.9,14.3-1.2,21.4-1.3
			C560.2,88.2,560.2,78.2,553.8,78.2L553.8,78.2z"/>
	</g>
</g>
<g>
	<g>
		<path class="st0" d="M271.8,129.9c-3.8-5.1-6.4-10.9-7-17.3c-0.6-6.3-10-6.6-10,0c0,8.5-7.2,17.9-16.6,16.6
			c-6.8-0.9-14.7-9.9-15-16.6c-0.3-6.4-10.3-6.4-10,0c0.6,11.9,12.4,25.7,24.7,26.6c15,1.1,27-12.2,26.9-26.6c-3.3,0-6.7,0-10,0
			c0.8,8.2,3.5,15.8,8.4,22.4C267,140,275.6,135,271.8,129.9L271.8,129.9z"/>
	</g>
</g>
<g>
	<g>
		<path class="st0" d="M338.3,82.5c-0.8,10-1.1,20.1-0.8,30.2c0.1,6.4,10.1,6.4,10,0c-0.2-10.1,0-20.1,0.8-30.2
			C348.8,76.1,338.8,76.1,338.3,82.5L338.3,82.5z"/>
	</g>
</g>
<g>
	<g>
		<path class="st0" d="M379.2,82.7c-0.4,10-0.4,20,0,30c0.2,6.4,10.2,6.4,10,0c-0.4-10-0.4-20,0-30
			C389.4,76.3,379.4,76.3,379.2,82.7L379.2,82.7z"/>
	</g>
</g>
<g>
	<g>
		<path class="st0" d="M379.1,112.5c0,8.5-7.2,17.9-16.6,16.6c-6.8-0.9-14.7-9.9-15-16.6c-0.3-6.4-10.3-6.4-10,0
			c0.6,11.9,12.4,25.7,24.7,26.6c15,1.1,27-12.2,26.9-26.6C389.1,106.1,379.1,106.1,379.1,112.5L379.1,112.5z"/>
	</g>
</g>
</svg>
